<svg data-v-423bf9ae="" xmlns="http://www.w3.org/2000/svg" viewBox="0 0 207 107" class="iconLeftSlogan"><!----><!----><!----><g data-v-423bf9ae="" id="ca272045-8a47-409c-a29f-b8b86bd8ee03" fill="black" transform="matrix(4.761904617736313,0,0,4.761904617736313,98.9230572929097,-18.952380946253804)"><path d="M0.70 10.30C0.70 12.43 2.04 13.97 4.12 13.97C6.19 13.97 7.53 12.43 7.53 10.30C7.53 8.18 6.19 6.64 4.12 6.64C2.04 6.64 0.70 8.18 0.70 10.30ZM1.40 10.30C1.40 8.60 2.45 7.28 4.12 7.28C5.77 7.28 6.83 8.53 6.83 10.30C6.83 12.05 5.77 13.33 4.12 13.33C2.45 13.33 1.40 12.12 1.40 10.30ZM9.38 16.58L10.08 16.58L10.08 12.43L10.25 12.43C10.64 13.19 11.41 13.97 12.94 13.97C14.80 13.97 16.21 12.52 16.21 10.30C16.21 8.09 14.80 6.64 12.94 6.64C11.41 6.64 10.64 7.42 10.25 8.18L10.05 8.18L10.05 6.83L9.38 6.83ZM12.81 13.33C11.21 13.33 10.08 12.12 10.08 10.30C10.08 8.48 11.21 7.28 12.81 7.28C14.41 7.28 15.48 8.46 15.48 10.30C15.48 12.15 14.41 13.33 12.81 13.33ZM17.25 6.83L17.25 7.45L19.57 7.45L19.57 13.78L20.27 13.78L20.27 7.45L22.62 7.45L22.62 6.83L20.27 6.83L20.27 5.01C20.27 4.73 20.41 4.59 20.66 4.59L22.26 4.59L22.26 3.98L20.47 3.98C19.91 3.98 19.57 4.31 19.57 4.90L19.57 6.83Z"></path></g><!----><g data-v-423bf9ae="" id="84b9c1cd-5705-4713-937f-80f24f57539b" transform="matrix(1.0868111504448785,0,0,1.0868111504448785,-13.255261890115804,-0.23894260335429607)" stroke="none" fill="black"><g clip-rule="evenodd"><path d="M12.983 10.59l17.018 88.223-5.872-59.049 29.021-1.892-.054-9.883L64.549 1 53.622 18.977z"></path><path d="M59.389 54.548l5.16-53.541-8.74 39.716-19.612 1.045 1.57 20.462-7.766 36.583 12.057-39.899z"></path><path d="M62.8 67.182l.549-10.453-15.979 3.755-.032 11.797-17.337 26.532 21.68-27.616zM65.711 62.394l14.841-4.731 1.509-12.532-15.899 2.095zM72.07 44.502l10.988-1.417 1.581-10.278-8.079-.373L64.549 1l8.43 30.967z"></path><path d="M87.413 31.294l1.256-9.506-9.544-2.694L64.549 1l14.483 22.437-.422 7z"></path></g></g><!----><g data-v-423bf9ae="" id="f0755327-a321-489b-8f85-a69fe5b55e4e" fill="black" transform="matrix(0.33980940419027755,0,0,0.33980940419027755,102.22240501977763,59.014551097476925)"><path d="M0.10 3.51C0.10 3.75 0.21 3.77 0.38 3.77L0.88 3.77C0.97 3.77 3.11 10.99 3.14 11.07C3.49 12.14 3.60 12.99 3.91 12.99C4.13 12.99 4.23 12.67 4.51 12.26C4.66 12.05 4.76 12.01 4.90 11.66L6.89 6.45C6.96 6.29 6.99 6.20 7.01 6.20C7.04 6.20 7.07 6.29 7.11 6.45C7.71 8.51 8.39 11.03 8.40 11.07C8.75 12.14 8.86 12.99 9.17 12.99C9.39 12.99 9.49 12.67 9.77 12.26C9.93 12.05 10.02 12.01 10.16 11.66L13.26 4.06C13.36 3.81 13.36 3.77 13.72 3.77C13.96 3.77 14.01 3.71 14.01 3.53C14.01 3.32 13.97 3.26 13.78 3.26C13.64 3.26 13.33 3.30 12.82 3.30C12.08 3.30 11.58 3.26 11.38 3.26C11.20 3.26 11.10 3.28 11.10 3.51C11.10 3.75 11.21 3.77 11.38 3.77L12.29 3.77C12.36 3.77 12.38 3.81 12.38 3.95C12.38 4.63 10.78 8.72 10.07 10.63C9.93 10.99 9.86 11.17 9.81 11.17C9.76 11.17 9.70 10.99 9.58 10.60C9.49 10.30 8.57 7.18 8.04 5.22C7.99 5.05 7.78 4.17 7.78 3.85C7.78 3.81 7.78 3.79 7.80 3.77L8.68 3.77C8.86 3.77 8.96 3.75 8.96 3.56C8.96 3.32 8.92 3.26 8.72 3.26C8.40 3.26 7.46 3.30 7.04 3.30C6.62 3.30 5.71 3.26 5.49 3.26C5.31 3.26 5.21 3.28 5.21 3.51C5.21 3.75 5.32 3.77 5.49 3.77L6.29 3.77C6.33 3.77 6.51 4.27 6.66 4.83C6.72 5.05 6.76 5.15 6.76 5.25C6.76 5.31 6.76 5.38 6.72 5.49L4.72 10.60C4.62 10.82 4.59 10.95 4.55 10.95C4.51 10.95 4.48 10.84 4.40 10.60C4.31 10.32 3.30 7.27 2.70 5.22C2.66 5.08 2.34 3.96 2.32 3.85C2.34 3.77 2.38 3.77 2.42 3.77L3.12 3.77C3.35 3.77 3.42 3.75 3.42 3.56C3.42 3.32 3.37 3.26 3.18 3.26C2.86 3.26 2.14 3.30 1.72 3.30C1.30 3.30 0.60 3.26 0.38 3.26C0.20 3.26 0.10 3.28 0.10 3.51ZM21.63 12.39C21.63 12.63 21.66 12.68 21.85 12.68C22.18 12.68 23.14 12.64 23.56 12.64C23.98 12.64 28.49 12.68 28.81 12.68C28.94 12.68 29.09 12.66 29.09 12.49C29.09 12.07 29.13 11.23 29.13 10.53C29.13 10.39 28.98 10.39 28.85 10.39C28.74 10.39 28.62 10.39 28.62 10.51C28.60 11.06 28.60 11.41 28.57 11.76C28.55 12.01 28.55 12.04 28.45 12.04C28.29 12.04 25.66 12.08 24.16 12.08C24.09 12.08 24.05 10.11 24.01 8.26C24.01 8.06 24.05 8.09 24.19 8.09L26.47 8.09C27.17 8.09 27.20 8.20 27.20 8.30L27.20 9.00C27.20 9.14 27.38 9.14 27.50 9.14C27.59 9.14 27.72 9.13 27.72 9.02C27.72 8.83 27.69 8.33 27.69 7.83C27.69 7.32 27.72 6.83 27.72 6.71C27.72 6.59 27.58 6.58 27.48 6.58C27.37 6.58 27.20 6.59 27.20 6.72L27.20 7.45C27.20 7.62 26.75 7.63 26.47 7.63L24.14 7.63C24.02 7.63 24.01 7.63 24.01 7.45C24.00 6.75 23.98 6.06 23.98 5.46C23.98 5.12 23.98 3.71 24.07 3.71C25.30 3.71 27.80 3.75 27.80 3.81C27.80 3.99 27.76 4.83 27.76 4.89C27.76 5.04 27.83 5.10 28.01 5.10C28.21 5.10 28.28 5.08 28.28 4.94C28.28 3.85 28.34 3.36 28.34 3.09C28.34 2.91 28.25 2.90 28.06 2.90C27.86 2.90 27.86 2.95 27.83 3.11C27.82 3.25 27.89 3.25 26.98 3.25C26.36 3.25 24.22 3.29 23.45 3.29C22.96 3.29 22.02 3.25 21.92 3.25C21.80 3.25 21.74 3.30 21.74 3.49C21.74 3.72 21.81 3.74 21.98 3.74L22.64 3.74C22.69 3.74 22.76 4.79 22.76 5.71C22.76 5.80 22.82 8.27 22.82 9.83L22.82 11.17C22.82 11.84 22.79 12.18 22.76 12.18L21.91 12.18C21.69 12.18 21.63 12.21 21.63 12.39ZM37.10 3.51C37.10 3.75 37.18 3.79 37.35 3.79L38.21 3.77C38.26 3.77 38.32 5.52 38.32 7.11L38.32 11.63C38.32 11.93 38.30 12.18 38.28 12.18L37.55 12.18C37.32 12.18 37.25 12.19 37.25 12.39C37.25 12.63 37.28 12.68 37.48 12.68C37.60 12.68 38.56 12.64 38.98 12.64C39.16 12.64 39.68 12.67 40.32 12.67C41.87 12.67 44.28 12.43 44.28 10.23C44.28 8.27 42.46 7.94 41.78 7.84C41.69 7.83 41.68 7.83 41.68 7.81C41.68 7.80 41.72 7.78 41.79 7.76C42.43 7.52 43.88 6.90 43.88 5.54C43.88 3.81 42.41 3.25 40.73 3.25C40.15 3.25 39.55 3.29 39.00 3.29C38.58 3.29 37.58 3.26 37.35 3.26C37.17 3.26 37.10 3.28 37.10 3.51ZM39.55 8.19C39.55 8.12 39.55 8.08 39.66 8.08L40.14 8.08C40.75 8.08 41.40 8.09 41.78 8.22C42.64 8.51 42.97 9.16 42.97 10.14C42.97 11.17 42.50 12.18 40.49 12.18L39.65 12.18C39.56 12.18 39.55 9.02 39.55 8.19ZM39.55 7.59L39.55 6.92C39.55 5.87 39.56 3.71 39.61 3.68C39.66 3.65 39.97 3.63 40.18 3.63C41.59 3.63 42.62 4.41 42.62 5.77C42.62 6.92 41.89 7.46 41.26 7.66C41.17 7.69 41.08 7.70 40.99 7.70C40.91 7.70 40.77 7.69 40.53 7.69L39.73 7.69C39.55 7.69 39.55 7.67 39.55 7.59ZM62.12 12.46C62.12 12.63 62.13 12.70 62.31 12.70C62.47 12.70 63.70 12.64 64.09 12.64C64.95 12.64 65.83 12.70 66.68 12.70C69.30 12.70 71.69 11.07 71.69 7.91C71.69 4.89 69.36 3.07 66.32 3.07C65.76 3.07 64.50 3.23 63.46 3.23C62.99 3.23 62.52 3.22 62.47 3.22C62.29 3.22 62.27 3.32 62.27 3.49C62.27 3.68 62.34 3.70 62.47 3.70L63.43 3.67C63.46 3.67 63.46 4.20 63.46 4.72C63.46 5.91 63.38 12.21 63.29 12.21L62.40 12.21C62.22 12.21 62.12 12.22 62.12 12.46ZM64.69 11.40C64.69 9.46 64.69 7.52 64.71 5.60C64.71 5.03 64.75 3.61 64.79 3.60C65.09 3.53 65.67 3.51 66.02 3.51C68.59 3.51 70.20 5.75 70.20 7.73C70.20 8.95 70.15 12.25 65.48 12.25C65.21 12.25 64.81 12.25 64.71 12.21C64.69 12.19 64.69 11.79 64.69 11.40ZM79.80 12.39C79.80 12.63 79.83 12.68 80.02 12.68C80.35 12.68 81.31 12.64 81.73 12.64C82.15 12.64 86.66 12.68 86.98 12.68C87.11 12.68 87.26 12.66 87.26 12.49C87.26 12.07 87.30 11.23 87.30 10.53C87.30 10.39 87.15 10.39 87.02 10.39C86.91 10.39 86.79 10.39 86.79 10.51C86.77 11.06 86.77 11.41 86.74 11.76C86.72 12.01 86.72 12.04 86.62 12.04C86.46 12.04 83.83 12.08 82.33 12.08C82.26 12.08 82.22 10.11 82.18 8.26C82.18 8.06 82.22 8.09 82.36 8.09L84.64 8.09C85.34 8.09 85.37 8.20 85.37 8.30L85.37 9.00C85.37 9.14 85.55 9.14 85.67 9.14C85.76 9.14 85.89 9.13 85.89 9.02C85.89 8.83 85.86 8.33 85.86 7.83C85.86 7.32 85.89 6.83 85.89 6.71C85.89 6.59 85.75 6.58 85.65 6.58C85.54 6.58 85.37 6.59 85.37 6.72L85.37 7.45C85.37 7.62 84.92 7.63 84.64 7.63L82.31 7.63C82.19 7.63 82.18 7.63 82.18 7.45C82.17 6.75 82.15 6.06 82.15 5.46C82.15 5.12 82.15 3.71 82.24 3.71C83.47 3.71 85.97 3.75 85.97 3.81C85.97 3.99 85.93 4.83 85.93 4.89C85.93 5.04 86.00 5.10 86.18 5.10C86.38 5.10 86.45 5.08 86.45 4.94C86.45 3.85 86.51 3.36 86.51 3.09C86.51 2.91 86.42 2.90 86.23 2.90C86.03 2.90 86.03 2.95 86.00 3.11C85.99 3.25 86.06 3.25 85.15 3.25C84.53 3.25 82.39 3.29 81.62 3.29C81.13 3.29 80.19 3.25 80.09 3.25C79.97 3.25 79.91 3.30 79.91 3.49C79.91 3.72 79.98 3.74 80.15 3.74L80.81 3.74C80.86 3.74 80.93 4.79 80.93 5.71C80.93 5.80 80.99 8.27 80.99 9.83L80.99 11.17C80.99 11.84 80.96 12.18 80.93 12.18L80.08 12.18C79.86 12.18 79.80 12.21 79.80 12.39ZM94.85 3.51C94.85 3.75 94.95 3.77 95.12 3.77L95.55 3.77C95.63 3.77 98.42 10.99 98.46 11.07C98.95 12.18 99.05 12.99 99.26 12.99C99.53 12.99 99.58 12.67 99.86 12.26C100.02 12.04 100.10 12.01 100.25 11.66L103.49 4.06C103.60 3.81 103.59 3.77 103.95 3.77C104.17 3.77 104.24 3.75 104.24 3.56C104.24 3.32 104.20 3.26 104.01 3.26C103.87 3.26 103.33 3.30 102.91 3.30C102.49 3.30 101.67 3.26 101.44 3.26C101.25 3.26 101.19 3.29 101.19 3.51C101.19 3.75 101.32 3.77 101.49 3.77L102.48 3.77C102.55 3.77 102.56 3.81 102.56 3.95C102.56 4.63 100.88 8.72 100.16 10.63C100.02 10.99 99.93 11.17 99.89 11.17C99.85 11.17 99.75 10.98 99.61 10.60C99.04 9.10 97.90 6.01 97.38 4.49C97.30 4.27 97.22 3.93 97.22 3.79L97.22 3.77L98.20 3.77C98.42 3.77 98.49 3.75 98.49 3.56C98.49 3.32 98.45 3.26 98.25 3.26C97.93 3.26 96.85 3.30 96.43 3.30C96.01 3.30 95.30 3.26 95.12 3.26C94.93 3.26 94.85 3.28 94.85 3.51ZM121.87 5.77C121.87 9.07 126.85 8.20 126.85 10.65C126.85 11.59 126.01 12.31 125.03 12.31C124.21 12.31 122.61 11.83 122.58 11.47L122.50 10.15C122.49 9.97 122.42 9.91 122.23 9.91L122.16 9.91C121.95 9.91 121.95 10.00 121.95 10.12C121.95 10.32 122.07 11.66 122.09 12.17C122.11 12.38 123.37 12.85 124.91 12.85C126.48 12.85 128.09 11.87 128.09 10.11C128.09 6.79 123.12 7.87 123.12 5.32C123.12 4.31 123.90 3.56 124.94 3.56C125.96 3.56 127.05 4.58 127.05 4.89C127.05 5.01 127.01 5.73 127.01 5.78C127.01 5.92 127.05 5.99 127.32 5.99C127.55 5.99 127.57 5.94 127.57 5.75C127.57 5.04 127.65 3.68 127.65 3.53C127.65 3.30 127.61 3.29 127.34 3.29C127.12 3.29 127.11 3.32 127.09 3.53C127.09 3.61 127.08 3.78 127.04 3.78C126.98 3.78 126.90 3.74 126.83 3.68C126.03 3.14 125.41 3.08 124.91 3.08C123.38 3.08 121.87 4.17 121.87 5.77ZM136.05 12.39C136.05 12.63 136.08 12.68 136.28 12.68C136.60 12.68 137.56 12.64 137.98 12.64C138.40 12.64 142.91 12.68 143.23 12.68C143.36 12.68 143.51 12.66 143.51 12.49C143.51 12.07 143.56 11.23 143.56 10.53C143.56 10.39 143.40 10.39 143.28 10.39C143.16 10.39 143.04 10.39 143.04 10.51C143.02 11.06 143.02 11.41 143.00 11.76C142.97 12.01 142.97 12.04 142.87 12.04C142.72 12.04 140.08 12.08 138.59 12.08C138.52 12.08 138.47 10.11 138.43 8.26C138.43 8.06 138.47 8.09 138.61 8.09L140.90 8.09C141.60 8.09 141.62 8.20 141.62 8.30L141.62 9.00C141.62 9.14 141.81 9.14 141.92 9.14C142.02 9.14 142.14 9.13 142.14 9.02C142.14 8.83 142.11 8.33 142.11 7.83C142.11 7.32 142.14 6.83 142.14 6.71C142.14 6.59 142.00 6.58 141.90 6.58C141.79 6.58 141.62 6.59 141.62 6.72L141.62 7.45C141.62 7.62 141.18 7.63 140.90 7.63L138.56 7.63C138.45 7.63 138.43 7.63 138.43 7.45C138.42 6.75 138.40 6.06 138.40 5.46C138.40 5.12 138.40 3.71 138.49 3.71C139.72 3.71 142.23 3.75 142.23 3.81C142.23 3.99 142.18 4.83 142.18 4.89C142.18 5.04 142.25 5.10 142.44 5.10C142.63 5.10 142.70 5.08 142.70 4.94C142.70 3.85 142.76 3.36 142.76 3.09C142.76 2.91 142.67 2.90 142.48 2.90C142.28 2.90 142.28 2.95 142.25 3.11C142.24 3.25 142.31 3.25 141.40 3.25C140.78 3.25 138.64 3.29 137.87 3.29C137.38 3.29 136.44 3.25 136.35 3.25C136.22 3.25 136.16 3.30 136.16 3.49C136.16 3.72 136.23 3.74 136.40 3.74L137.06 3.74C137.12 3.74 137.19 4.79 137.19 5.71C137.19 5.80 137.24 8.27 137.24 9.83L137.24 11.17C137.24 11.84 137.21 12.18 137.19 12.18L136.33 12.18C136.11 12.18 136.05 12.21 136.05 12.39ZM151.52 3.51C151.52 3.72 151.59 3.79 151.79 3.79L152.60 3.77C152.70 3.77 152.74 6.61 152.74 8.55L152.74 10.42C152.74 11.30 152.73 12.18 152.68 12.18L152.08 12.18C151.86 12.18 151.79 12.19 151.79 12.39C151.79 12.63 151.83 12.68 152.03 12.68C152.15 12.68 152.98 12.64 153.40 12.64C153.82 12.64 154.59 12.68 154.91 12.68C155.08 12.68 155.11 12.61 155.11 12.40C155.11 12.24 155.08 12.18 154.91 12.18L154.10 12.18C154.03 12.18 153.94 9.18 153.94 8.37C153.94 8.30 153.94 8.26 154.06 8.26C154.45 8.26 155.05 8.27 155.34 8.27C157.58 8.32 157.72 10.00 157.72 11.68L157.72 12.49C157.72 12.61 157.78 12.64 157.88 12.64C157.88 12.64 159.32 12.68 159.80 12.68C159.96 12.68 160.02 12.64 160.02 12.53C160.02 12.24 159.96 12.18 159.81 12.18L159.17 12.18C159.07 12.18 159.04 12.14 159.01 11.31C158.93 8.99 157.56 8.34 156.65 8.05C156.51 8.01 156.53 8.01 156.65 7.95C157.23 7.69 158.55 6.94 158.55 5.63C158.55 3.63 156.86 3.21 155.46 3.21C155.13 3.21 153.85 3.29 153.43 3.29C153.01 3.29 152.03 3.26 151.80 3.26C151.62 3.26 151.52 3.28 151.52 3.51ZM153.94 7.80L153.94 4.40C153.94 4.05 153.97 3.68 154.01 3.68C154.22 3.65 154.50 3.65 154.73 3.65C156.03 3.65 157.28 4.47 157.28 5.82C157.28 6.99 156.73 7.57 156.07 7.88C156.03 7.90 155.99 7.90 155.92 7.90C155.44 7.88 154.73 7.88 154.13 7.87C153.96 7.87 153.94 7.85 153.94 7.80ZM166.38 3.51C166.38 3.75 166.47 3.77 166.64 3.77L167.08 3.77C167.16 3.77 169.95 10.99 169.99 11.07C170.48 12.18 170.58 12.99 170.79 12.99C171.05 12.99 171.11 12.67 171.39 12.26C171.54 12.04 171.63 12.01 171.78 11.66L175.01 4.06C175.13 3.81 175.11 3.77 175.48 3.77C175.70 3.77 175.77 3.75 175.77 3.56C175.77 3.32 175.73 3.26 175.53 3.26C175.39 3.26 174.86 3.30 174.44 3.30C174.02 3.30 173.19 3.26 172.97 3.26C172.77 3.26 172.72 3.29 172.72 3.51C172.72 3.75 172.84 3.77 173.01 3.77L174.01 3.77C174.08 3.77 174.09 3.81 174.09 3.95C174.09 4.63 172.41 8.72 171.68 10.63C171.54 10.99 171.46 11.17 171.42 11.17C171.37 11.17 171.28 10.98 171.14 10.60C170.56 9.10 169.43 6.01 168.91 4.49C168.83 4.27 168.74 3.93 168.74 3.79L168.74 3.77L169.72 3.77C169.95 3.77 170.02 3.75 170.02 3.56C170.02 3.32 169.97 3.26 169.78 3.26C169.46 3.26 168.38 3.30 167.96 3.30C167.54 3.30 166.82 3.26 166.64 3.26C166.46 3.26 166.38 3.28 166.38 3.51ZM183.25 12.39C183.25 12.63 183.29 12.68 183.48 12.68C183.81 12.68 184.56 12.64 185.28 12.64C185.93 12.64 186.73 12.68 186.96 12.68C187.12 12.68 187.15 12.61 187.15 12.40C187.15 12.24 187.12 12.18 186.96 12.18L185.99 12.18C185.89 12.18 185.86 9.55 185.86 7.76L185.86 5.87C185.86 5.14 185.89 3.70 185.99 3.70L186.90 3.70C187.12 3.70 187.15 3.68 187.15 3.49C187.15 3.25 187.12 3.19 186.96 3.19C186.63 3.19 185.96 3.23 185.30 3.23C184.49 3.23 183.78 3.19 183.55 3.19C183.37 3.19 183.30 3.21 183.30 3.44C183.30 3.68 183.39 3.70 183.55 3.70L184.48 3.70C184.52 3.70 184.59 4.79 184.59 5.71L184.59 7.08C184.59 8.92 184.58 12.18 184.46 12.18L183.54 12.18C183.32 12.18 183.25 12.19 183.25 12.39ZM195.12 7.91C195.12 11.31 197.48 12.87 200.07 12.87C201.85 12.87 203.63 11.90 203.67 11.59C203.84 10.29 203.90 9.70 203.90 9.66C203.90 9.56 203.85 9.52 203.69 9.51C203.63 9.51 203.57 9.49 203.53 9.49C203.42 9.49 203.36 9.53 203.34 9.70L203.15 11.33C203.14 11.45 202.03 12.24 200.47 12.24C198.34 12.24 196.63 10.29 196.63 7.94C196.63 5.42 198.06 3.54 200.06 3.54C201.91 3.54 203.25 5.01 203.25 5.17C203.25 5.29 203.20 6.40 203.20 6.45C203.20 6.59 203.24 6.64 203.50 6.64C203.70 6.64 203.77 6.62 203.77 6.44C203.77 5.73 203.83 3.92 203.83 3.67C203.83 3.47 203.71 3.44 203.50 3.44C203.28 3.44 203.25 3.50 203.25 3.67L203.25 4.05C203.25 4.16 203.21 4.16 203.08 4.06C202.80 3.86 201.82 3.04 200.16 3.04C197.32 3.04 195.12 4.96 195.12 7.91ZM212.14 12.39C212.14 12.63 212.18 12.68 212.38 12.68C212.70 12.68 213.46 12.64 214.17 12.64C214.83 12.64 215.63 12.68 215.85 12.68C216.02 12.68 216.05 12.61 216.05 12.40C216.05 12.24 216.02 12.18 215.85 12.18L214.89 12.18C214.79 12.18 214.76 9.55 214.76 7.76L214.76 5.87C214.76 5.14 214.79 3.70 214.89 3.70L215.80 3.70C216.02 3.70 216.05 3.68 216.05 3.49C216.05 3.25 216.02 3.19 215.85 3.19C215.53 3.19 214.86 3.23 214.20 3.23C213.39 3.23 212.67 3.19 212.45 3.19C212.27 3.19 212.20 3.21 212.20 3.44C212.20 3.68 212.28 3.70 212.45 3.70L213.37 3.70C213.42 3.70 213.49 4.79 213.49 5.71L213.49 7.08C213.49 8.92 213.47 12.18 213.36 12.18L212.44 12.18C212.21 12.18 212.14 12.19 212.14 12.39ZM223.94 12.39C223.94 12.63 223.97 12.68 224.17 12.68C224.49 12.68 225.46 12.64 225.88 12.64C226.30 12.64 230.80 12.68 231.13 12.68C231.25 12.68 231.41 12.66 231.41 12.49C231.41 12.07 231.45 11.23 231.45 10.53C231.45 10.39 231.29 10.39 231.17 10.39C231.06 10.39 230.93 10.39 230.93 10.51C230.92 11.06 230.92 11.41 230.89 11.76C230.86 12.01 230.86 12.04 230.76 12.04C230.61 12.04 227.98 12.08 226.48 12.08C226.41 12.08 226.37 10.11 226.32 8.26C226.32 8.06 226.37 8.09 226.51 8.09L228.79 8.09C229.49 8.09 229.52 8.20 229.52 8.30L229.52 9.00C229.52 9.14 229.70 9.14 229.81 9.14C229.91 9.14 230.03 9.13 230.03 9.02C230.03 8.83 230.01 8.33 230.01 7.83C230.01 7.32 230.03 6.83 230.03 6.71C230.03 6.59 229.89 6.58 229.80 6.58C229.68 6.58 229.52 6.59 229.52 6.72L229.52 7.45C229.52 7.62 229.07 7.63 228.79 7.63L226.45 7.63C226.34 7.63 226.32 7.63 226.32 7.45C226.31 6.75 226.30 6.06 226.30 5.46C226.30 5.12 226.30 3.71 226.38 3.71C227.61 3.71 230.12 3.75 230.12 3.81C230.12 3.99 230.08 4.83 230.08 4.89C230.08 5.04 230.15 5.10 230.33 5.10C230.52 5.10 230.59 5.08 230.59 4.94C230.59 3.85 230.65 3.36 230.65 3.09C230.65 2.91 230.57 2.90 230.37 2.90C230.17 2.90 230.17 2.95 230.15 3.11C230.13 3.25 230.20 3.25 229.29 3.25C228.68 3.25 226.53 3.29 225.76 3.29C225.27 3.29 224.34 3.25 224.24 3.25C224.11 3.25 224.06 3.30 224.06 3.49C224.06 3.72 224.13 3.74 224.29 3.74L224.95 3.74C225.01 3.74 225.08 4.79 225.08 5.71C225.08 5.80 225.13 8.27 225.13 9.83L225.13 11.17C225.13 11.84 225.11 12.18 225.08 12.18L224.22 12.18C224.00 12.18 223.94 12.21 223.94 12.39ZM239.62 5.77C239.62 9.07 244.61 8.20 244.61 10.65C244.61 11.59 243.77 12.31 242.79 12.31C241.96 12.31 240.37 11.83 240.34 11.47L240.25 10.15C240.24 9.97 240.17 9.91 239.99 9.91L239.92 9.91C239.71 9.91 239.71 10.00 239.71 10.12C239.71 10.32 239.82 11.66 239.85 12.17C239.86 12.38 241.12 12.85 242.66 12.85C244.23 12.85 245.84 11.87 245.84 10.11C245.84 6.79 240.87 7.87 240.87 5.32C240.87 4.31 241.65 3.56 242.69 3.56C243.71 3.56 244.80 4.58 244.80 4.89C244.80 5.01 244.76 5.73 244.76 5.78C244.76 5.92 244.80 5.99 245.07 5.99C245.31 5.99 245.32 5.94 245.32 5.75C245.32 5.04 245.41 3.68 245.41 3.53C245.41 3.30 245.36 3.29 245.10 3.29C244.87 3.29 244.86 3.32 244.85 3.53C244.85 3.61 244.83 3.78 244.79 3.78C244.73 3.78 244.65 3.74 244.58 3.68C243.78 3.14 243.17 3.08 242.66 3.08C241.14 3.08 239.62 4.17 239.62 5.77Z"></path></g></svg>