<svg data-v-423bf9ae="" xmlns="http://www.w3.org/2000/svg" viewBox="0 0 1481.8575990968366 193" class="fontAboveSlogan"><!----><!----><!----><g data-v-423bf9ae="" id="3df73825-366e-4fa2-9fa0-e29c05a1e118" fill="white" transform="matrix(8.68935527543819,0,0,8.68935527543819,649.8979602180755,-23.530192974058423)"><path d="M3.01 13.96L3.01 13.96Q1.74 13.96 1.02 13.21L1.02 13.21L1.02 13.21Q0.31 12.46 0.31 10.96L0.31 10.96L0.31 10.96Q0.31 10.34 0.44 9.62L0.44 9.62L0.44 9.62Q0.81 7.53 1.82 6.50L1.82 6.50L1.82 6.50Q2.83 5.48 4.31 5.48L4.31 5.48L4.31 5.48Q5.58 5.48 6.30 6.22L6.30 6.22L6.30 6.22Q7.01 6.97 7.01 8.47L7.01 8.47L7.01 8.47Q7.01 9.07 6.88 9.85L6.88 9.85L6.88 9.85Q6.51 11.92 5.50 12.94L5.50 12.94L5.50 12.94Q4.48 13.96 3.01 13.96L3.01 13.96ZM3.04 12.63L3.04 12.63Q3.88 12.63 4.46 11.92L4.46 11.92L4.46 11.92Q5.04 11.22 5.33 9.61L5.33 9.61L5.33 9.61Q5.46 8.87 5.46 8.33L5.46 8.33L5.46 8.33Q5.46 7.50 5.15 7.15L5.15 7.15L5.15 7.15Q4.85 6.79 4.27 6.79L4.27 6.79L4.27 6.79Q3.45 6.79 2.87 7.50L2.87 7.50L2.87 7.50Q2.30 8.20 2.00 9.84L2.00 9.84L2.00 9.84Q1.87 10.56 1.87 11.09L1.87 11.09L1.87 11.09Q1.87 11.92 2.17 12.27L2.17 12.27L2.17 12.27Q2.47 12.63 3.04 12.63L3.04 12.63ZM7.03 16.61L8.96 5.63L10.46 5.63L10.27 6.87L10.36 6.87L10.36 6.87Q10.75 6.19 11.34 5.83L11.34 5.83L11.34 5.83Q11.92 5.48 12.64 5.48L12.64 5.48L12.64 5.48Q13.74 5.48 14.33 6.21L14.33 6.21L14.33 6.21Q14.92 6.94 14.92 8.33L14.92 8.33L14.92 8.33Q14.92 9.00 14.77 9.82L14.77 9.82L14.77 9.82Q14.54 11.16 14.06 12.09L14.06 12.09L14.06 12.09Q13.58 13.02 12.92 13.49L12.92 13.49L12.92 13.49Q12.26 13.96 11.46 13.96L11.46 13.96L11.46 13.96Q10.65 13.96 10.15 13.60L10.15 13.60L10.15 13.60Q9.65 13.25 9.43 12.65L9.43 12.65L9.36 12.65L8.67 16.61L7.03 16.61ZM10.86 12.56L10.86 12.56Q11.70 12.56 12.28 11.83L12.28 11.83L12.28 11.83Q12.87 11.09 13.14 9.58L13.14 9.58L13.14 9.58Q13.25 8.90 13.25 8.44L13.25 8.44L13.25 8.44Q13.25 7.63 12.95 7.25L12.95 7.25L12.95 7.25Q12.65 6.87 12.07 6.87L12.07 6.87L12.07 6.87Q11.54 6.87 11.08 7.22L11.08 7.22L11.08 7.22Q10.63 7.57 10.30 8.24L10.30 8.24L10.30 8.24Q9.97 8.90 9.82 9.81L9.82 9.81L9.82 9.81Q9.71 10.39 9.71 10.87L9.71 10.87L9.71 10.87Q9.71 11.69 10.01 12.13L10.01 12.13L10.01 12.13Q10.30 12.56 10.86 12.56L10.86 12.56ZM15.70 13.78L16.93 6.79L15.85 6.79L16.05 5.63L17.14 5.63L17.25 5.05L17.25 5.05Q17.44 3.99 18.03 3.40L18.03 3.40L18.03 3.40Q18.62 2.80 19.56 2.80L19.56 2.80L20.73 2.80L20.53 4.00L19.90 4.00L19.90 4.00Q19.50 4.00 19.21 4.31L19.21 4.31L19.21 4.31Q18.92 4.63 18.83 5.11L18.83 5.11L18.74 5.63L20.23 5.63L20.03 6.79L18.59 6.79L17.36 13.78L15.70 13.78Z"></path></g><!----><!----><g data-v-423bf9ae="" id="a39bbbb8-493e-4bf5-bdc3-65614eddb3aa" fill="white" transform="matrix(5.928853263271574,0,0,5.928853263271574,-2.0158340407919013,110.41107465139575)"><path d="M14.50 3.92L13.96 3.92L13.92 3.92L12.45 3.92L12.45 4.19C12.45 4.34 12.53 4.42 12.71 4.44L12.84 4.44C12.89 4.44 12.99 4.45 13.13 4.45C13.27 4.45 13.41 4.47 13.58 4.47L11.20 12.24C11.17 12.33 11.14 12.43 11.13 12.54C11.12 12.66 11.09 12.75 11.06 12.87C11.03 12.75 11.02 12.63 10.99 12.53L10.91 12.24L8.11 4.10C8.08 4.05 8.05 3.99 8.01 3.96C7.97 3.93 7.91 3.92 7.84 3.92L7.64 3.92C7.57 3.92 7.52 3.93 7.48 3.98C7.43 4.02 7.39 4.05 7.38 4.10L4.58 12.25C4.55 12.35 4.52 12.43 4.49 12.54C4.47 12.64 4.45 12.75 4.42 12.88C4.41 12.78 4.38 12.67 4.35 12.54C4.34 12.43 4.31 12.33 4.28 12.24L1.90 4.47C2.07 4.47 2.21 4.45 2.34 4.45C2.46 4.45 2.55 4.44 2.60 4.44L2.72 4.44C2.90 4.42 3.00 4.34 3.00 4.19L3.00 3.92L1.53 3.92L0.94 3.92L0.34 3.92L0.34 4.19C0.34 4.34 0.43 4.42 0.62 4.44L0.71 4.44C0.76 4.44 0.80 4.45 0.87 4.45C0.94 4.45 1.02 4.47 1.11 4.47L4.06 13.82L4.69 13.82L7.63 5.22C7.67 5.11 7.70 5.00 7.73 4.87C7.76 5.00 7.78 5.11 7.83 5.22L10.75 13.82L11.40 13.82L14.34 4.47C14.42 4.47 14.49 4.45 14.56 4.45C14.63 4.45 14.69 4.44 14.73 4.44L14.83 4.44C15.01 4.42 15.09 4.34 15.09 4.19L15.09 3.92ZM24.33 3.92L23.14 3.92L23.14 4.19C23.14 4.34 23.24 4.42 23.42 4.44L23.56 4.44C23.63 4.44 23.73 4.45 23.87 4.45C24.01 4.45 24.16 4.47 24.33 4.47L24.33 13.26C24.16 13.26 24.01 13.27 23.87 13.27C23.73 13.27 23.63 13.29 23.56 13.29L23.42 13.29C23.24 13.30 23.16 13.38 23.16 13.54L23.16 13.82L24.33 13.82L30.27 13.82L30.27 13.22L30.27 11.76L29.92 11.76C29.72 11.76 29.64 11.89 29.62 12.11C29.62 12.14 29.61 12.19 29.61 12.29C29.61 12.39 29.61 12.53 29.60 12.74C29.58 12.95 29.57 13.09 29.57 13.22L25.05 13.22L25.05 9.09L28.99 9.09L28.99 8.51L25.05 8.51L25.05 4.51L29.57 4.51C29.60 5.12 29.62 5.50 29.62 5.63C29.64 5.85 29.72 5.96 29.92 5.96L30.27 5.96L30.27 4.51L30.27 3.92ZM45.96 9.52C45.54 9.11 44.94 8.86 44.16 8.75C44.48 8.67 44.76 8.55 45.01 8.40C45.26 8.25 45.49 8.08 45.65 7.87C45.82 7.66 45.96 7.43 46.05 7.20C46.13 6.96 46.19 6.71 46.19 6.44C46.19 6.05 46.10 5.68 45.98 5.38C45.85 5.07 45.64 4.80 45.37 4.58C45.11 4.37 44.77 4.20 44.35 4.09C43.93 3.98 43.44 3.92 42.88 3.92L40.04 3.92L38.85 3.92L38.85 4.19C38.85 4.34 38.95 4.42 39.13 4.44L39.27 4.44C39.34 4.44 39.44 4.45 39.58 4.45C39.72 4.45 39.87 4.47 40.04 4.47L40.04 13.26C39.87 13.26 39.72 13.27 39.58 13.27C39.44 13.27 39.34 13.29 39.27 13.29L39.13 13.29C38.95 13.30 38.86 13.38 38.86 13.54L38.86 13.82L40.04 13.82L43.25 13.82C43.78 13.82 44.24 13.76 44.66 13.64C45.08 13.51 45.43 13.34 45.71 13.10C45.99 12.87 46.21 12.59 46.37 12.25C46.52 11.91 46.59 11.54 46.59 11.12C46.59 10.46 46.38 9.93 45.96 9.52ZM40.75 4.48L42.88 4.48C43.76 4.48 44.42 4.66 44.84 5.00C45.26 5.35 45.47 5.84 45.47 6.51C45.47 6.76 45.43 7.03 45.33 7.27C45.23 7.50 45.08 7.71 44.87 7.91C44.66 8.11 44.39 8.26 44.07 8.37C43.75 8.48 43.36 8.55 42.90 8.55L40.75 8.55ZM45.21 12.68C44.76 13.06 44.10 13.24 43.23 13.24L40.75 13.24L40.75 9.07L43.25 9.07C43.67 9.07 44.03 9.11 44.35 9.21C44.67 9.31 44.95 9.45 45.18 9.62C45.40 9.80 45.57 10.00 45.70 10.25C45.81 10.50 45.88 10.79 45.88 11.10C45.88 11.79 45.65 12.31 45.21 12.68ZM74.16 6.80C73.93 6.19 73.61 5.68 73.19 5.25C72.77 4.82 72.28 4.48 71.71 4.26C71.13 4.03 70.48 3.92 69.78 3.92L66.35 3.92L65.16 3.92L65.16 4.19C65.16 4.34 65.25 4.42 65.44 4.44L65.58 4.44C65.65 4.44 65.74 4.45 65.88 4.45C66.02 4.45 66.18 4.47 66.35 4.47L66.35 13.26C66.18 13.26 66.02 13.27 65.88 13.27C65.74 13.27 65.65 13.29 65.58 13.29L65.44 13.29C65.25 13.30 65.16 13.38 65.16 13.54L65.16 13.82L66.35 13.82L69.78 13.82C70.48 13.82 71.13 13.71 71.71 13.48C72.28 13.26 72.77 12.92 73.19 12.49C73.61 12.05 73.93 11.54 74.16 10.92C74.38 10.30 74.51 9.63 74.51 8.86C74.51 8.11 74.38 7.42 74.16 6.80ZM73.47 10.72C73.28 11.27 73.02 11.72 72.67 12.10C72.32 12.47 71.90 12.75 71.41 12.95C70.92 13.15 70.38 13.24 69.78 13.24L67.06 13.24L67.06 4.49L69.78 4.49C70.38 4.49 70.92 4.59 71.41 4.79C71.90 4.98 72.32 5.26 72.67 5.64C73.02 6.02 73.28 6.47 73.47 7.01C73.67 7.56 73.77 8.18 73.77 8.86C73.77 9.56 73.67 10.18 73.47 10.72ZM83.99 3.92L82.80 3.92L82.80 4.19C82.80 4.34 82.89 4.42 83.08 4.44L83.22 4.44C83.29 4.44 83.38 4.45 83.52 4.45C83.66 4.45 83.82 4.47 83.99 4.47L83.99 13.26C83.82 13.26 83.66 13.27 83.52 13.27C83.38 13.27 83.29 13.29 83.22 13.29L83.08 13.29C82.89 13.30 82.81 13.38 82.81 13.54L82.81 13.82L83.99 13.82L89.92 13.82L89.92 13.22L89.92 11.76L89.57 11.76C89.38 11.76 89.29 11.89 89.28 12.11C89.28 12.14 89.26 12.19 89.26 12.29C89.26 12.39 89.26 12.53 89.25 12.74C89.24 12.95 89.22 13.09 89.22 13.22L84.70 13.22L84.70 9.09L88.65 9.09L88.65 8.51L84.70 8.51L84.70 4.51L89.22 4.51C89.25 5.12 89.28 5.50 89.28 5.63C89.29 5.85 89.38 5.96 89.57 5.96L89.92 5.96L89.92 4.51L89.92 3.92ZM107.41 3.92L106.85 3.92L106.82 3.92L105.35 3.92L105.35 4.19C105.35 4.34 105.43 4.42 105.62 4.44L105.74 4.44C105.80 4.44 105.88 4.45 106.01 4.45C106.13 4.45 106.27 4.47 106.43 4.47L103.22 12.32C103.14 12.53 103.07 12.75 103.01 13.01C102.96 12.77 102.89 12.53 102.80 12.32L99.57 4.47C99.72 4.47 99.88 4.45 100.00 4.45C100.13 4.45 100.21 4.44 100.27 4.44L100.38 4.44C100.56 4.42 100.66 4.34 100.66 4.19L100.66 3.92L99.16 3.92L98.60 3.92L98 3.92L98 4.19C98 4.34 98.10 4.42 98.28 4.44L98.38 4.44C98.42 4.44 98.49 4.45 98.56 4.45C98.63 4.45 98.73 4.47 98.83 4.47L102.69 13.82L103.32 13.82L107.18 4.47C107.28 4.47 107.38 4.45 107.45 4.45C107.52 4.45 107.59 4.44 107.63 4.44L107.72 4.44C107.90 4.42 108.00 4.34 108.00 4.19L108.00 3.92ZM132.15 9.91C132.01 9.65 131.81 9.39 131.57 9.21C131.33 9.03 131.08 8.88 130.79 8.75C130.49 8.62 130.17 8.51 129.86 8.41C129.56 8.32 129.25 8.20 128.95 8.11C128.66 7.99 128.39 7.87 128.16 7.71C127.92 7.56 127.74 7.38 127.60 7.15C127.46 6.93 127.37 6.65 127.37 6.31C127.37 6.06 127.43 5.82 127.53 5.59C127.62 5.35 127.76 5.15 127.95 4.97C128.13 4.79 128.35 4.65 128.63 4.55C128.91 4.45 129.22 4.40 129.58 4.40C130.26 4.40 130.87 4.51 131.43 4.75C131.47 5.54 131.50 5.99 131.50 6.06C131.52 6.29 131.60 6.41 131.80 6.41L132.13 6.41L132.13 4.38C131.25 4.00 130.41 3.81 129.58 3.81C129.12 3.81 128.72 3.88 128.35 4.02C127.99 4.16 127.69 4.34 127.46 4.58C127.22 4.82 127.02 5.08 126.90 5.39C126.77 5.70 126.71 6.02 126.71 6.36C126.71 6.78 126.78 7.14 126.92 7.42C127.06 7.70 127.26 7.92 127.50 8.12C127.74 8.32 127.99 8.46 128.28 8.58C128.58 8.71 128.90 8.82 129.21 8.92C129.51 9.02 129.81 9.11 130.12 9.21C130.41 9.31 130.68 9.45 130.91 9.60C131.15 9.76 131.33 9.94 131.47 10.16C131.61 10.39 131.68 10.68 131.68 11.03C131.68 11.35 131.63 11.66 131.52 11.94C131.40 12.22 131.25 12.46 131.04 12.67C130.83 12.88 130.56 13.05 130.26 13.16C129.95 13.29 129.60 13.33 129.21 13.33C128.42 13.33 127.76 13.20 127.23 12.95C127.22 12.75 127.22 12.54 127.20 12.32C127.19 12.10 127.19 11.91 127.18 11.76C127.16 11.61 127.16 11.52 127.16 11.51C127.15 11.28 127.05 11.17 126.85 11.17L126.52 11.17L126.52 13.02L126.52 13.20L126.52 13.38C127.37 13.75 128.25 13.93 129.18 13.93C129.68 13.93 130.13 13.85 130.52 13.69C130.91 13.54 131.25 13.31 131.52 13.05C131.78 12.78 132.01 12.46 132.15 12.10C132.29 11.73 132.36 11.34 132.36 10.92C132.36 10.51 132.29 10.18 132.15 9.91ZM141.81 3.92L140.62 3.92L140.62 4.19C140.62 4.34 140.71 4.42 140.90 4.44L141.04 4.44C141.11 4.44 141.20 4.45 141.34 4.45C141.48 4.45 141.64 4.47 141.81 4.47L141.81 13.26C141.64 13.26 141.48 13.27 141.34 13.27C141.20 13.27 141.11 13.29 141.04 13.29L140.90 13.29C140.71 13.30 140.63 13.38 140.63 13.54L140.63 13.82L141.81 13.82L147.74 13.82L147.74 13.22L147.74 11.76L147.39 11.76C147.20 11.76 147.11 11.89 147.10 12.11C147.10 12.14 147.08 12.19 147.08 12.29C147.08 12.39 147.08 12.53 147.07 12.74C147.06 12.95 147.04 13.09 147.04 13.22L142.52 13.22L142.52 9.09L146.47 9.09L146.47 8.51L142.52 8.51L142.52 4.51L147.04 4.51C147.07 5.12 147.10 5.50 147.10 5.63C147.11 5.85 147.20 5.96 147.39 5.96L147.74 5.96L147.74 4.51L147.74 3.92ZM164.32 13.29L164.22 13.29L164.04 13.29C163.95 13.29 163.87 13.27 163.79 13.27L160.82 9.53C160.73 9.42 160.62 9.32 160.51 9.25C160.94 9.21 161.34 9.11 161.69 8.96C162.04 8.81 162.32 8.61 162.57 8.37C162.81 8.13 163.00 7.85 163.13 7.55C163.25 7.24 163.32 6.89 163.32 6.51C163.32 5.66 163.04 5.03 162.48 4.58C161.92 4.14 161.07 3.92 159.92 3.92L157.51 3.92L156.34 3.92L156.34 4.19C156.34 4.34 156.42 4.42 156.60 4.44L156.74 4.44C156.81 4.44 156.91 4.45 157.05 4.45C157.19 4.45 157.35 4.47 157.51 4.47L157.51 13.26C157.35 13.26 157.19 13.27 157.05 13.27C156.91 13.27 156.81 13.29 156.74 13.29L156.60 13.29C156.42 13.30 156.32 13.38 156.32 13.54L156.32 13.82L157.51 13.82L158.23 13.82L159.40 13.82L159.40 13.54C159.40 13.38 159.31 13.30 159.12 13.29L158.98 13.29C158.91 13.29 158.82 13.27 158.68 13.27C158.54 13.27 158.40 13.26 158.23 13.26L158.23 9.34L159.40 9.34C159.60 9.34 159.74 9.35 159.82 9.39C159.91 9.44 159.99 9.52 160.08 9.62L163.25 13.64C163.31 13.71 163.35 13.75 163.41 13.78C163.46 13.80 163.53 13.82 163.60 13.82L163.67 13.82L164.22 13.82L164.58 13.82L164.58 13.54C164.58 13.38 164.50 13.30 164.32 13.29ZM159.82 8.81L158.23 8.81L158.23 4.48L159.92 4.48C160.80 4.48 161.48 4.66 161.94 5.00C162.40 5.33 162.62 5.87 162.62 6.57C162.62 6.92 162.57 7.21 162.44 7.49C162.32 7.77 162.12 7.99 161.88 8.19C161.64 8.39 161.35 8.55 161 8.65C160.65 8.75 160.26 8.81 159.82 8.81ZM181.13 3.92L180.57 3.92L180.54 3.92L179.07 3.92L179.07 4.19C179.07 4.34 179.16 4.42 179.34 4.44L179.47 4.44C179.52 4.44 179.61 4.45 179.73 4.45C179.86 4.45 180.00 4.47 180.15 4.47L176.95 12.32C176.86 12.53 176.79 12.75 176.74 13.01C176.68 12.77 176.61 12.53 176.53 12.32L173.29 4.47C173.45 4.47 173.60 4.45 173.73 4.45C173.85 4.45 173.94 4.44 173.99 4.44L174.10 4.44C174.29 4.42 174.38 4.34 174.38 4.19L174.38 3.92L172.89 3.92L172.33 3.92L171.72 3.92L171.72 4.19C171.72 4.34 171.82 4.42 172.00 4.44L172.10 4.44C172.14 4.44 172.21 4.45 172.28 4.45C172.35 4.45 172.45 4.47 172.55 4.47L176.41 13.82L177.04 13.82L180.91 4.47C181.01 4.47 181.10 4.45 181.17 4.45C181.24 4.45 181.31 4.44 181.36 4.44L181.44 4.44C181.62 4.42 181.72 4.34 181.72 4.19L181.72 3.92ZM192.58 4.44C192.77 4.42 192.85 4.34 192.85 4.19L192.85 3.91L191.67 3.91L190.96 3.91L189.77 3.91L189.77 4.19C189.77 4.34 189.87 4.42 190.05 4.44L190.19 4.44C190.26 4.44 190.36 4.45 190.50 4.45C190.64 4.45 190.79 4.47 190.96 4.47L190.96 13.26C190.79 13.26 190.64 13.27 190.50 13.27C190.36 13.27 190.26 13.29 190.19 13.29L190.05 13.29C189.87 13.30 189.77 13.38 189.77 13.54L189.77 13.82L190.96 13.82L191.67 13.82L192.85 13.82L192.85 13.54C192.85 13.38 192.77 13.30 192.58 13.29L192.44 13.29C192.37 13.29 192.28 13.27 192.14 13.27C192.00 13.27 191.84 13.26 191.67 13.26L191.67 4.47C191.84 4.47 192.00 4.45 192.14 4.45C192.28 4.45 192.37 4.44 192.44 4.44ZM208.92 12.21C208.89 12.18 208.85 12.15 208.81 12.15C208.78 12.15 208.77 12.15 208.74 12.17C208.73 12.18 208.70 12.21 208.67 12.22C208.47 12.40 208.26 12.56 208.07 12.70C207.87 12.84 207.66 12.94 207.42 13.03C207.19 13.13 206.93 13.20 206.65 13.24C206.37 13.29 206.07 13.31 205.72 13.31C205.16 13.31 204.61 13.22 204.13 13.01C203.64 12.81 203.24 12.52 202.89 12.14C202.54 11.76 202.24 11.28 202.05 10.74C201.85 10.19 201.75 9.56 201.75 8.86C201.75 8.18 201.85 7.56 202.05 7.01C202.26 6.47 202.54 6.01 202.90 5.61C203.27 5.24 203.70 4.94 204.20 4.73C204.71 4.52 205.25 4.42 205.86 4.42C206.75 4.42 207.58 4.56 208.31 4.89C208.35 5.78 208.39 6.30 208.39 6.41C208.40 6.64 208.49 6.75 208.68 6.75L209.02 6.75L209.02 4.51C207.84 4.03 206.78 3.81 205.86 3.81C205.14 3.81 204.50 3.92 203.90 4.17C203.31 4.42 202.78 4.76 202.36 5.21C201.92 5.66 201.60 6.19 201.36 6.80C201.12 7.42 201.01 8.11 201.01 8.86C201.01 9.63 201.14 10.32 201.36 10.95C201.59 11.58 201.91 12.10 202.31 12.54C202.72 12.99 203.21 13.33 203.78 13.57C204.36 13.80 204.97 13.93 205.66 13.93C206.07 13.93 206.44 13.90 206.79 13.83C207.13 13.76 207.45 13.66 207.75 13.54C208.03 13.41 208.29 13.26 208.53 13.09C208.77 12.91 208.99 12.73 209.20 12.50ZM220.02 4.44C220.21 4.42 220.29 4.34 220.29 4.19L220.29 3.91L219.11 3.91L218.40 3.91L217.21 3.91L217.21 4.19C217.21 4.34 217.31 4.42 217.49 4.44L217.63 4.44C217.70 4.44 217.80 4.45 217.94 4.45C218.08 4.45 218.23 4.47 218.40 4.47L218.40 13.26C218.23 13.26 218.08 13.27 217.94 13.27C217.80 13.27 217.70 13.29 217.63 13.29L217.49 13.29C217.31 13.30 217.21 13.38 217.21 13.54L217.21 13.82L218.40 13.82L219.11 13.82L220.29 13.82L220.29 13.54C220.29 13.38 220.21 13.30 220.02 13.29L219.88 13.29C219.81 13.29 219.72 13.27 219.58 13.27C219.44 13.27 219.28 13.26 219.11 13.26L219.11 4.47C219.28 4.47 219.44 4.45 219.58 4.45C219.72 4.45 219.81 4.44 219.88 4.44ZM229.82 3.92L228.63 3.92L228.63 4.19C228.63 4.34 228.73 4.42 228.91 4.44L229.05 4.44C229.12 4.44 229.22 4.45 229.36 4.45C229.50 4.45 229.66 4.47 229.82 4.47L229.82 13.26C229.66 13.26 229.50 13.27 229.36 13.27C229.22 13.27 229.12 13.29 229.05 13.29L228.91 13.29C228.73 13.30 228.65 13.38 228.65 13.54L228.65 13.82L229.82 13.82L235.76 13.82L235.76 13.22L235.76 11.76L235.41 11.76C235.21 11.76 235.13 11.89 235.12 12.11C235.12 12.14 235.10 12.19 235.10 12.29C235.10 12.39 235.10 12.53 235.09 12.74C235.07 12.95 235.06 13.09 235.06 13.22L230.54 13.22L230.54 9.09L234.49 9.09L234.49 8.51L230.54 8.51L230.54 4.51L235.06 4.51C235.09 5.12 235.12 5.50 235.12 5.63C235.13 5.85 235.21 5.96 235.41 5.96L235.76 5.96L235.76 4.51L235.76 3.92ZM250.07 9.91C249.93 9.65 249.73 9.39 249.49 9.21C249.26 9.03 249.00 8.88 248.71 8.75C248.42 8.62 248.09 8.51 247.79 8.41C247.48 8.32 247.17 8.20 246.88 8.11C246.58 7.99 246.32 7.87 246.08 7.71C245.84 7.56 245.66 7.38 245.52 7.15C245.38 6.93 245.29 6.65 245.29 6.31C245.29 6.06 245.35 5.82 245.45 5.59C245.55 5.35 245.69 5.15 245.87 4.97C246.05 4.79 246.27 4.65 246.55 4.55C246.83 4.45 247.14 4.40 247.51 4.40C248.18 4.40 248.79 4.51 249.35 4.75C249.40 5.54 249.42 5.99 249.42 6.06C249.44 6.29 249.52 6.41 249.72 6.41L250.05 6.41L250.05 4.38C249.17 4.00 248.33 3.81 247.51 3.81C247.04 3.81 246.64 3.88 246.27 4.02C245.91 4.16 245.62 4.34 245.38 4.58C245.14 4.82 244.94 5.08 244.82 5.39C244.69 5.70 244.64 6.02 244.64 6.36C244.64 6.78 244.71 7.14 244.85 7.42C244.99 7.70 245.18 7.92 245.42 8.12C245.66 8.32 245.91 8.46 246.20 8.58C246.50 8.71 246.82 8.82 247.13 8.92C247.44 9.02 247.73 9.11 248.04 9.21C248.33 9.31 248.60 9.45 248.84 9.60C249.07 9.76 249.26 9.94 249.40 10.16C249.54 10.39 249.61 10.68 249.61 11.03C249.61 11.35 249.55 11.66 249.44 11.94C249.33 12.22 249.17 12.46 248.96 12.67C248.75 12.88 248.49 13.05 248.18 13.16C247.87 13.29 247.52 13.33 247.13 13.33C246.34 13.33 245.69 13.20 245.15 12.95C245.14 12.75 245.14 12.54 245.13 12.32C245.11 12.10 245.11 11.91 245.10 11.76C245.08 11.61 245.08 11.52 245.08 11.51C245.07 11.28 244.97 11.17 244.78 11.17L244.44 11.17L244.44 13.02L244.44 13.20L244.44 13.38C245.29 13.75 246.18 13.93 247.10 13.93C247.60 13.93 248.05 13.85 248.44 13.69C248.84 13.54 249.17 13.31 249.44 13.05C249.70 12.78 249.93 12.46 250.07 12.10C250.21 11.73 250.28 11.34 250.28 10.92C250.28 10.51 250.21 10.18 250.07 9.91Z"></path></g></svg>