<svg data-v-423bf9ae="" xmlns="http://www.w3.org/2000/svg" viewBox="0 0 104.38094958408448 60" class="font"><!----><!----><!----><g data-v-423bf9ae="" id="c6b5d9d9-4be0-4ffa-a524-96b0f1f32e90" fill="black" transform="matrix(4.761904617736313,0,0,4.761904617736313,-3.333332325010211,-18.952380946253804)"><path d="M0.70 10.30C0.70 12.43 2.04 13.97 4.12 13.97C6.19 13.97 7.53 12.43 7.53 10.30C7.53 8.18 6.19 6.64 4.12 6.64C2.04 6.64 0.70 8.18 0.70 10.30ZM1.40 10.30C1.40 8.60 2.45 7.28 4.12 7.28C5.77 7.28 6.83 8.53 6.83 10.30C6.83 12.05 5.77 13.33 4.12 13.33C2.45 13.33 1.40 12.12 1.40 10.30ZM9.38 16.58L10.08 16.58L10.08 12.43L10.25 12.43C10.64 13.19 11.41 13.97 12.94 13.97C14.80 13.97 16.21 12.52 16.21 10.30C16.21 8.09 14.80 6.64 12.94 6.64C11.41 6.64 10.64 7.42 10.25 8.18L10.05 8.18L10.05 6.83L9.38 6.83ZM12.81 13.33C11.21 13.33 10.08 12.12 10.08 10.30C10.08 8.48 11.21 7.28 12.81 7.28C14.41 7.28 15.48 8.46 15.48 10.30C15.48 12.15 14.41 13.33 12.81 13.33ZM17.25 6.83L17.25 7.45L19.57 7.45L19.57 13.78L20.27 13.78L20.27 7.45L22.62 7.45L22.62 6.83L20.27 6.83L20.27 5.01C20.27 4.73 20.41 4.59 20.66 4.59L22.26 4.59L22.26 3.98L20.47 3.98C19.91 3.98 19.57 4.31 19.57 4.90L19.57 6.83Z"></path></g><!----><!----></svg>